<svg width="1752" height="478" viewBox="0 0 1752 478" fill="none" xmlns="http://www.w3.org/2000/svg">
<g clip-path="url(#clip0_40_4851)">
<path d="M662.435 229.326L616 68.5762H685.68C696.593 116.157 702.541 142.131 708.707 172.414C713.727 142.131 718.474 116.376 728.951 68.5762H793.174C801.141 102.952 809.107 137.547 816.637 172.196C822.312 139.621 829.406 103.171 836.227 68.5762H903.833L857.125 229.326H782.916C770.857 178.089 766.983 161.01 760.599 127.07C754.433 161.228 751.486 177.871 740.355 229.326H662.49H662.435Z" fill="white"/>
<path d="M914.309 229.326V68.5762H981.261V121.887H1028.19V68.5762H1095.36V229.326H1028.19V169.904H981.261V229.326H914.309Z" fill="white"/>
<path d="M1105.78 229.326L1177.53 68.5762H1256.98L1324.59 229.326H1252.4L1244.21 206.354H1184.79L1176.82 229.326H1105.78ZM1232.15 167.394C1225.11 146.005 1219.6 130.072 1215.07 114.793C1210.55 130.072 1205.03 145.786 1196.85 167.394H1232.15Z" fill="white"/>
<path d="M1335.07 229.326V68.5762H1402.02V190.203H1469.9V229.381H1335.07V229.326Z" fill="white"/>
<path d="M1485.12 229.326V68.5762H1640.2V110.264H1550.27V126.416H1634.3V168.322H1550.27V187.693H1644.56V229.381H1485.18L1485.12 229.326Z" fill="white"/>
<path d="M667.02 426.199V307.083H619.166V265.395H781.062V307.083H733.917V426.199H666.965H667.02Z" fill="white"/>
<path d="M794.758 426.199V265.449H887.41C909.727 265.449 933.19 266.595 945.249 271.615C964.62 279.582 975.533 295.515 975.533 317.177C975.533 331.31 971.223 342.441 962.11 350.899C956.217 356.574 948.196 360.939 938.211 364.322L983.5 426.254H908.581L875.569 373.216H861.437V426.254H794.703L794.758 426.199ZM888.556 330.982C894.012 330.982 897.887 330.546 900.615 329.4C904.926 327.599 906.781 323.507 906.781 318.705C906.781 314.394 905.198 310.739 901.106 308.938C898.159 307.574 894.067 307.137 888.119 307.137H861.491V331.037H888.61L888.556 330.982Z" fill="white"/>
<path d="M983.715 426.199L1055.47 265.449H1134.92L1202.52 426.199H1130.33L1122.15 403.227H1062.73L1054.76 426.199H983.715ZM1110.09 364.267C1103.05 342.878 1097.54 326.945 1093.01 311.666C1088.48 326.945 1082.97 342.659 1074.78 364.267H1110.09Z" fill="white"/>
<path d="M1213 265.449H1287.21C1322.3 265.449 1343.47 267.959 1358.69 274.78C1383.52 285.693 1398.09 311.23 1398.09 344.897C1398.09 380.855 1380.08 410.703 1346.85 420.252C1331.14 424.78 1316.13 426.145 1284.21 426.145H1212.95V265.395L1213 265.449ZM1287.49 381.565C1301.84 381.565 1312.09 380.2 1318.7 374.962C1326.66 368.578 1330.1 358.811 1330.1 343.751C1330.1 329.618 1326.66 320.779 1319.62 315.54C1313.02 310.738 1303.69 309.865 1291.14 309.865H1279.74V381.619H1287.49V381.565Z" fill="white"/>
<path d="M1414.78 426.199V265.449H1569.86V307.137H1479.93V323.289H1563.97V365.195H1479.93V384.566H1574.22V426.254H1414.84L1414.78 426.199Z" fill="white"/>
<path d="M1621.26 366.068C1632.67 377.909 1652.69 386.094 1666.55 386.094C1677.46 386.094 1681.56 383.584 1681.56 379.709C1681.56 375.835 1680.19 373.325 1663.33 368.796L1636.7 361.976C1603.91 353.3 1588.63 336.93 1588.63 312.103C1588.63 280.018 1620.5 261.084 1667.86 261.084C1703.6 261.084 1732.3 270.851 1750.31 287.93L1711.84 321.161C1698.64 309.32 1680.41 304.3 1668.79 304.3C1658.31 304.3 1655.37 307.028 1655.37 310.684C1655.37 313.849 1657.66 316.85 1671.73 320.233L1699.07 327.054C1735.03 335.948 1751.89 351.881 1751.89 377.145C1751.89 410.157 1721.17 430.892 1666.28 430.892C1625.95 430.892 1596.16 418.615 1579.3 401.754L1621.21 366.014L1621.26 366.068Z" fill="white"/>
</g>
<g clip-path="url(#clip1_40_4851)">
<path fill-rule="evenodd" clip-rule="evenodd" d="M205.769 163.675L259.553 238.496V477.011L201.085 446.607L203.427 383.475L144.979 306.312L51.4421 250.186L0 166.017V88.8535L51.4421 116.916L205.769 163.675Z" fill="url(#paint0_linear_40_4851)"/>
<path fill-rule="evenodd" clip-rule="evenodd" d="M259.553 238.496L315.679 163.675L469.985 116.916L519.086 88.8535V166.017L467.644 250.186L376.449 306.312L315.679 383.475V446.607L259.553 477.011V238.496Z" fill="url(#paint1_linear_40_4851)"/>
<path fill-rule="evenodd" clip-rule="evenodd" d="M332.031 388.373L390.479 313.317L467.643 271.242V357.753L332.031 435.521V388.373Z" fill="url(#paint2_linear_40_4851)"/>
<path fill-rule="evenodd" clip-rule="evenodd" d="M390.479 313.317L467.642 271.242V357.753L390.479 313.317Z" fill="url(#paint3_linear_40_4851)"/>
<path fill-rule="evenodd" clip-rule="evenodd" d="M187.052 388.376L128.604 313.32L51.4404 357.756L187.052 435.525V388.376Z" fill="url(#paint4_linear_40_4851)"/>
<path fill-rule="evenodd" clip-rule="evenodd" d="M128.604 313.317L51.4404 271.242V357.753L128.604 313.317Z" fill="url(#paint5_linear_40_4851)"/>
<path fill-rule="evenodd" clip-rule="evenodd" d="M79.5049 102.884L259.552 0V208.11L214.823 147.379L79.5049 102.884Z" fill="url(#paint6_linear_40_4851)"/>
<path fill-rule="evenodd" clip-rule="evenodd" d="M259.553 0L439.581 102.884L306.955 147.379L259.553 208.11V0Z" fill="url(#paint7_linear_40_4851)"/>
</g>
<defs>
<linearGradient id="paint0_linear_40_4851" x1="5.40572" y1="277.019" x2="265.349" y2="277.019" gradientUnits="userSpaceOnUse">
<stop stop-color="#FF4E00"/>
<stop offset="1" stop-color="#FFF200"/>
</linearGradient>
<linearGradient id="paint1_linear_40_4851" x1="525.292" y1="277.019" x2="265.349" y2="277.019" gradientUnits="userSpaceOnUse">
<stop stop-color="#FFF200"/>
<stop offset="1" stop-color="#FF4E00"/>
</linearGradient>
<linearGradient id="paint2_linear_40_4851" x1="356.347" y1="363.029" x2="447.184" y2="355.53" gradientUnits="userSpaceOnUse">
<stop stop-color="#FFF200"/>
<stop offset="1" stop-color="#FF960B"/>
</linearGradient>
<linearGradient id="paint3_linear_40_4851" x1="390.927" y1="317.337" x2="468.208" y2="317.337" gradientUnits="userSpaceOnUse">
<stop stop-color="#FF960B"/>
<stop offset="1" stop-color="#FFF200"/>
</linearGradient>
<linearGradient id="paint4_linear_40_4851" x1="49.0205" y1="376.68" x2="184.847" y2="376.68" gradientUnits="userSpaceOnUse">
<stop stop-color="#FF960B"/>
<stop offset="1" stop-color="#FFFB00"/>
</linearGradient>
<linearGradient id="paint5_linear_40_4851" x1="53.7823" y1="317.337" x2="131.063" y2="317.337" gradientUnits="userSpaceOnUse">
<stop stop-color="#FFF200"/>
<stop offset="1" stop-color="#FF960B"/>
</linearGradient>
<linearGradient id="paint6_linear_40_4851" x1="78.3535" y1="106.534" x2="258.674" y2="106.534" gradientUnits="userSpaceOnUse">
<stop stop-color="#FF960B"/>
<stop offset="1" stop-color="#FFF200"/>
</linearGradient>
<linearGradient id="paint7_linear_40_4851" x1="258.675" y1="106.534" x2="438.995" y2="106.534" gradientUnits="userSpaceOnUse">
<stop stop-color="#FF960B"/>
<stop offset="1" stop-color="#FFF200"/>
</linearGradient>
<clipPath id="clip0_40_4851">
<rect width="1136" height="362.424" fill="white" transform="translate(616 68.5762)"/>
</clipPath>
<clipPath id="clip1_40_4851">
<rect width="519.086" height="477.011" fill="white"/>
</clipPath>
</defs>
</svg>
