<?xml version="1.0" encoding="UTF-8"?>
<svg id="Layer_1" data-name="Layer 1" xmlns="http://www.w3.org/2000/svg" version="1.1" viewBox="0 0 375 346.5">
  <defs>
    <style>
      .cls-1 {
        fill: #0033ad;
      }

      .cls-1, .cls-2 {
        stroke-width: 0px;
      }

      .cls-2 {
        fill: #fff;
      }
    </style>
  </defs>
  <circle class="cls-2" cx="187.5" cy="173.2" r="171.2"/>
  <g id="Layer_2" data-name="Layer 2">
    <g id="Layer_1-2" data-name="Layer 1-2">
      <path class="cls-1" d="M122,172.3c-.6,10.7,7.7,19.9,18.4,20.6h1.2c10.8,0,19.6-8.7,19.5-19.6,0-10.8-8.7-19.6-19.6-19.5-10.4,0-18.9,8.1-19.5,18.5Z"/>
      <path class="cls-1" d="M49.3,167.3c-3.5-.2-6.5,2.5-6.6,6s2.5,6.5,6,6.6c3.5.2,6.4-2.5,6.6-6,.2-3.5-2.5-6.4-6-6.6h0Z"/>
      <path class="cls-1" d="M120.8,59c3.1-1.5,4.3-5.4,2.8-8.5s-5.4-4.3-8.5-2.8-4.3,5.3-2.8,8.4c1.5,3.2,5.3,4.5,8.5,2.9,0,0,0,0,0,0Z"/>
      <path class="cls-1" d="M140.6,93.5c4.8-2.4,6.7-8.3,4.3-13.1s-8.3-6.7-13.1-4.3-6.7,8.3-4.3,13.1c2.4,4.8,8.3,6.7,13.1,4.3Z"/>
      <path class="cls-1" d="M74,117.3c3.7,2.4,8.7,1.4,11.1-2.3,2.4-3.7,1.4-8.7-2.3-11.1-3.7-2.4-8.7-1.4-11.1,2.3h0c-2.5,3.7-1.4,8.7,2.3,11.1Z"/>
      <path class="cls-1" d="M85.8,163.8c-5.4-.3-10,3.8-10.3,9.2s3.8,10,9.2,10.3c5.4.3,10-3.8,10.3-9.2h0c.3-5.3-3.8-10-9.2-10.3Z"/>
      <path class="cls-1" d="M75.1,229.2c-3.9,2-5.6,6.8-3.6,10.8,2,3.9,6.8,5.6,10.8,3.6,3.9-2,5.6-6.8,3.6-10.8h0c-2-3.9-6.9-5.6-10.8-3.6h0Z"/>
      <path class="cls-1" d="M112.9,143.6c5.3,3.5,12.4,2,15.8-3.3,3.5-5.3,2-12.4-3.3-15.8-5.3-3.5-12.4-2-15.8,3.3-3.5,5.3-2,12.4,3.3,15.8h0Z"/>
      <path class="cls-1" d="M233.1,92.8c4.5,2.9,10.6,1.7,13.5-2.8s1.7-10.6-2.8-13.5c-4.5-2.9-10.6-1.7-13.5,2.8h0c-3,4.6-1.8,10.6,2.8,13.5h0Z"/>
      <path class="cls-1" d="M253,58.4c2.9,1.9,6.8,1.1,8.7-1.9,1.9-2.9,1.1-6.8-1.9-8.7s-6.8-1.1-8.7,1.8c-1.9,2.9-1,6.9,1.9,8.8h0Z"/>
      <path class="cls-1" d="M234.6,153.7c-10.7-.6-20,7.7-20.6,18.4-.6,10.7,7.7,20,18.4,20.6h1.1c10.7,0,19.5-8.7,19.5-19.6,0-10.3-8-18.9-18.4-19.4h0Z"/>
      <path class="cls-1" d="M147,142.2c3.3,6.6,10,10.7,17.5,10.7,10.7,0,19.5-8.7,19.5-19.6s-.7-6-2.1-8.8c-4.9-9.7-16.6-13.5-26.2-8.7-9.7,4.9-13.5,16.7-8.7,26.3h0Z"/>
      <path class="cls-1" d="M299.9,117.3c3.9-2,5.5-6.9,3.5-10.8s-6.9-5.5-10.8-3.5-5.5,6.8-3.6,10.7c2.1,3.9,6.9,5.6,10.9,3.6h0Z"/>
      <path class="cls-1" d="M250.5,123.4c-5.6,2.9-8,9.7-5.1,15.4,2.9,5.6,9.7,8,15.4,5.1s8-9.7,5.1-15.4c-2.9-5.6-9.7-7.9-15.4-5.1Z"/>
      <path class="cls-1" d="M186.7,55.4c4.4.2,8.2-3.2,8.5-7.6s-3.2-8.2-7.6-8.5c-4.4-.2-8.2,3.1-8.5,7.5-.2,4.5,3.2,8.3,7.6,8.6h0Z"/>
      <path class="cls-1" d="M186.6,105.9c6.3.4,11.7-4.5,12.1-10.8.4-6.3-4.5-11.7-10.8-12.1-6.3-.4-11.7,4.5-12.1,10.8-.3,6.3,4.5,11.7,10.8,12.1h0Z"/>
      <path class="cls-1" d="M124.5,223.1c5.6-2.9,8-9.7,5.1-15.4-2.9-5.6-9.7-8-15.4-5.1s-8,9.7-5.1,15.4c2.9,5.6,9.7,8,15.4,5.1Z"/>
      <path class="cls-1" d="M194.1,122.7c-5.9,9-3.4,21.1,5.6,27s21.1,3.4,27-5.6c5.9-9,3.4-21.1-5.6-27-3.2-2.1-6.9-3.2-10.7-3.2-6.6,0-12.7,3.3-16.3,8.8Z"/>
      <path class="cls-1" d="M228,204.3c-4.9-9.7-16.6-13.5-26.2-8.7-9.7,4.9-13.5,16.6-8.7,26.2,4.9,9.7,16.6,13.5,26.2,8.7h0c9.6-4.8,13.5-16.4,8.7-26q0,0,0-.2Z"/>
      <path class="cls-1" d="M262.1,202.9c-5.3-3.5-12.4-2-15.8,3.3-3.5,5.3-2,12.4,3.3,15.8,5.3,3.5,12.4,2,15.8-3.3,3.5-5.3,2-12.4-3.3-15.8h0Z"/>
      <path class="cls-1" d="M299.5,173.6c.3-5.4-3.8-10-9.2-10.3-5.4-.3-10,3.8-10.3,9.2-.3,5.4,3.8,10,9.2,10.3h0c5.3.3,10-3.9,10.3-9.2Z"/>
      <path class="cls-1" d="M326.4,166.6c-3.5-.2-6.5,2.5-6.6,6s2.5,6.5,6,6.6c3.5.2,6.4-2.5,6.6-6,.2-3.5-2.5-6.4-6-6.6Z"/>
      <path class="cls-1" d="M301,229.2c-3.7-2.4-8.7-1.4-11.1,2.3-2.4,3.7-1.4,8.7,2.3,11.1,3.7,2.4,8.7,1.4,11.1-2.3,2.5-3.7,1.4-8.7-2.3-11.1h0Z"/>
      <path class="cls-1" d="M121.9,288.1c-2.9-1.9-6.8-1.1-8.7,1.8-1.9,2.9-1.1,6.8,1.8,8.7,2.9,1.9,6.8,1.1,8.7-1.8h0c2-2.9,1.2-6.8-1.8-8.7Z"/>
      <path class="cls-1" d="M254.2,287.5c-3.1,1.5-4.3,5.4-2.8,8.5s5.4,4.3,8.5,2.8,4.3-5.3,2.8-8.4c-1.5-3.2-5.3-4.5-8.5-2.9,0,0,0,0,0,0Z"/>
      <path class="cls-1" d="M180.9,223.8c5.9-9,3.4-21.1-5.6-27-9-5.9-21.1-3.4-27,5.6s-3.4,21.1,5.6,27c3.2,2.1,6.9,3.2,10.7,3.2,6.6,0,12.8-3.2,16.4-8.8Z"/>
      <path class="cls-1" d="M141.9,253.7c-4.5-2.9-10.6-1.7-13.5,2.8-2.9,4.5-1.7,10.6,2.8,13.5s10.6,1.7,13.5-2.8h0c3-4.5,1.8-10.6-2.8-13.5Z"/>
      <path class="cls-1" d="M187.4,291.1c-4.4-.2-8.2,3.2-8.5,7.6s3.2,8.2,7.6,8.5c4.4.2,8.2-3.1,8.5-7.5.2-4.5-3.2-8.3-7.6-8.6h0Z"/>
      <path class="cls-1" d="M187.5,240.6c-6.3-.4-11.7,4.5-12.1,10.8-.4,6.3,4.5,11.7,10.8,12.1,6.3.3,11.7-4.5,12.1-10.8.4-6.3-4.5-11.7-10.8-12.1h0Z"/>
      <path class="cls-1" d="M234.4,253c-4.8,2.5-6.7,8.3-4.3,13.1s8.3,6.7,13.1,4.3c4.8-2.4,6.7-8.3,4.3-13.1-2.5-4.8-8.3-6.8-13.2-4.3h0Z"/>
    </g>
  </g>
</svg>