<?xml version="1.0" encoding="UTF-8"?>
<svg id="Layer_1" data-name="Layer 1" xmlns="http://www.w3.org/2000/svg" version="1.1" viewBox="0 0 44.8 44.8">
  <defs>
    <style>
      .cls-1 {
        fill: #fff;
        fill-rule: evenodd;
        stroke-width: 0px;
      }
    </style>
  </defs>
  <path class="cls-1" d="M22.4,3.2C11.8,3.2,3.2,11.8,3.2,22.4s8.6,19.2,19.2,19.2h11.5c-3.4,2-7.3,3.2-11.5,3.2-12.4,0-22.4-10.1-22.4-22.4S10,0,22.4,0s22.4,10,22.4,22.4,0,2.2-.2,3.2h-3.2c.2-1,.3-2.1.3-3.2,0-10.6-8.7-19.2-19.3-19.2Z"/>
  <path class="cls-1" d="M40.8,35.2c-.8,1.1-1.8,2.2-2.8,3.2h-15.6c-8.8,0-16-7.2-16-16S13.6,6.4,22.4,6.4s16,7.2,16,16,0,2.2-.3,3.2h-3.3c.3-1,.4-2.1.4-3.2,0-7.1-5.7-12.8-12.8-12.8s-12.8,5.7-12.8,12.8,5.7,12.8,12.8,12.8h18.4Z"/>
  <path class="cls-1" d="M42.6,32h0c.5-1,.9-2.1,1.2-3.2h-21.5c-3.5,0-6.4-2.9-6.4-6.4s2.9-6.4,6.4-6.4,6.4,2.9,6.4,6.4-.3,2.3-.9,3.2h3.5c.4-1,.5-2.1.5-3.2,0-5.3-4.3-9.6-9.6-9.6s-9.6,4.3-9.6,9.6,4.3,9.6,9.6,9.6h20.4Z"/>
</svg>