<?xml version="1.0" encoding="UTF-8"?>
<svg id="Layer_1" data-name="Layer 1" xmlns="http://www.w3.org/2000/svg" version="1.1" viewBox="0 0 236.4 200">
  <defs>
    <style>
      .cls-1 {
        fill: #fff;
        stroke-width: 0px;
      }
    </style>
  </defs>
  <g id="Layer_2" data-name="Layer 2">
    <g id="Layer_1-2" data-name="Layer 1-2">
      <path class="cls-1" d="M203,26.2l-28.5,14.5L37.1,110.7c-.5-3.5-.7-7.1-.7-10.7,0-45.2,36.8-81.8,82-81.8,13.9,0,27.6,3.6,39.8,10.4l16.3-8.3,2.4-1.2C132.2-13.4,69.7-3.4,37.3,41.2c-12.4,17.1-19.1,37.6-19.1,58.8,0,2.5,0,5.1.3,7.6.6,7.3-3.3,14.2-9.9,17.6l-8.6,4.4v20.4l25.3-12.9h0l8.2-4.2,8.1-4.1h0L186.4,55l16.3-8.3,33.6-17.1V9.1l-33.4,17Z"/>
      <path class="cls-1" d="M236.4,50L49.8,145l-16.3,8.3L0,170.4v20.4l33.3-16.9,28.5-14.5,137.6-70.1c.5,3.6.7,7.2.7,10.8,0,45.2-36.7,81.8-81.9,81.8-14,0-27.8-3.6-40-10.5l-1,.5-17.7,9c44.7,32.4,107.2,22.5,139.7-22.2,12.4-17.1,19.1-37.6,19.1-58.7,0-2.6-.1-5.1-.3-7.7-.6-7.3,3.3-14.2,9.9-17.6l8.6-4.4v-20.4Z"/>
    </g>
  </g>
</svg>